<svg xmlns="http://www.w3.org/2000/svg" viewBox="0 0 432 431.06"><defs><style>.cls-1{fill:#295ca9;}</style></defs><g id="Layer_2" data-name="Layer 2"><g id="Layer_1-2" data-name="Layer 1"><path class="cls-1" d="M329.86,0H102.14A102.14,102.14,0,0,0,0,102.14V328.92A102.14,102.14,0,0,0,102.14,431.06H184.6q0-76.77,0-153.54v-2h-51.4c-2.28,0-2.29,0-2.29-2.19,0-19.25,0-38.5,0-57.74,0-1.76.53-2.2,2.23-2.19,16.4.06,32.8,0,49.2,0h2.3c0-.67,0-1.26,0-1.86,0-16-.1-32,.13-48a87.33,87.33,0,0,1,8.29-37,67.1,67.1,0,0,1,35.85-33.94,84.4,84.4,0,0,1,34-6.45c13.43.2,26.86.81,40.28,1.29,2.5.09,5,.51,7.48.64,1.39.07,1.86.59,1.85,2,0,8,0,15.94,0,23.91,0,9.4,0,18.79,0,28.19,0,1.64-.46,2.13-2.11,2.12-10.19-.07-20.39-.19-30.58,0a73.13,73.13,0,0,0-13.84,1.6c-8.73,1.92-13.89,7.68-15.62,16.35A57,57,0,0,0,249.19,173c-.14,13-.06,26.08-.06,39.12,0,.39.05.78.09,1.37h58.6c2.46,0,2.5,0,2.19,2.34-1.33,10.26-2.7,20.5-4,30.76q-1.65,12.85-3.2,25.71c-.39,3.27-.31,3.28-3.6,3.28H249.13v155c0,.16,0,.32,0,.48h80.74A102.14,102.14,0,0,0,432,328.92V102.14A102.14,102.14,0,0,0,329.86,0Z"/></g></g></svg>